<svg width="60" height="50" viewBox="0 0 60 50" fill="none" xmlns="http://www.w3.org/2000/svg">
<path d="M10.4998 15L28.7358 31.4851C29.8899 32.5284 31.65 32.5163 32.7897 31.4573L50.5001 15M50.5168 39L37.8253 26.7656M11.5168 39L23.515 26.7656M18.5225 8.5H52.5001C54.7092 8.5 56.5001 10.2909 56.5001 12.5V34.1744M51.5002 17.5V36.5C51.5002 38.7091 49.7094 40.5 47.5002 40.5H13.5C11.2909 40.5 9.5 38.7091 9.5 36.5V17.5C9.5 15.2909 11.2909 13.5 13.5 13.5H47.5002C49.7094 13.5 51.5002 15.2909 51.5002 17.5Z" stroke="black" stroke-linecap="round" stroke-linejoin="round"/>
</svg>
