<svg width="577" height="770" viewBox="0 0 577 770" fill="none" xmlns="http://www.w3.org/2000/svg">
<path d="M213.317 263.699L215.547 272.026M213.317 263.699H242.76M213.317 263.699L189.896 266.986M215.547 272.026L195.919 290.435M215.547 272.026L242.76 263.699M215.547 272.026L252.574 294.818M215.547 272.026L220.455 304.461M172.721 288.682L195.919 290.435M172.721 288.682L158 302.707M172.721 288.682L189.896 266.986M195.919 290.435L191.012 320.239M191.012 320.239L215.547 343.031M191.012 320.239L158 302.707M191.012 320.239L220.455 304.461M191.012 320.239L159.784 343.689M242.76 263.699H279.34M242.76 263.699L285.14 272.026M279.34 263.699H299.415M279.34 263.699L285.14 272.026M299.415 263.699L296.292 275.533M299.415 263.699L309.229 275.533M299.415 263.699L285.14 272.026M299.415 263.699L340.903 267.643M296.292 275.533L291.385 297.448M296.292 275.533L301.646 288.682M296.292 275.533H309.229M296.292 275.533L285.14 272.026M291.385 297.448V323.308M291.385 297.448L299.415 307.967M291.385 297.448L301.646 288.682M291.385 297.448L285.14 272.026M291.385 297.448L252.574 294.818M291.385 323.308V348.729M291.385 323.308L301.646 351.797M291.385 323.308L299.415 307.967M291.385 323.308L248.559 337.333M291.385 323.308L252.574 294.818M291.385 323.308L267.296 364.508M291.385 348.729L306.999 384.67M291.385 348.729L267.296 364.508M291.385 348.729L279.34 382.04M306.999 384.67L279.34 382.04M306.999 384.67L327.966 374.15M306.999 384.67L301.646 351.797M306.999 384.67L358 374.15M279.34 382.04L236.514 384.67M279.34 382.04L267.296 364.508M236.514 384.67H208.856M236.514 384.67L267.296 364.508M236.514 384.67L208.856 371.082M236.514 384.67V371.082M208.856 384.67H161.569M208.856 384.67V371.082M161.569 384.67L174.506 346.976M161.569 384.67L208.856 371.082M161.569 384.67L159.784 343.689M174.506 346.976L215.547 343.031M174.506 346.976L159.784 343.689M215.547 343.031L248.559 337.333M215.547 343.031L208.856 371.082M158 302.707L166.476 270.273L189.896 266.986M158 302.707L159.784 343.689M327.966 374.15L301.646 351.797M327.966 374.15L342.687 367.138M327.966 374.15V346.976M301.646 351.797V326.814M299.415 307.967L342.687 288.682M299.415 307.967L301.646 326.814M299.415 307.967L301.646 288.682M299.415 307.967L327.966 321.993M301.646 288.682L309.229 275.533M340.903 267.643L309.229 275.533M340.903 267.643L356.963 270.273M340.903 267.643L371.238 248.796M309.229 275.533L342.687 288.682M342.687 288.682L356.963 270.273M342.687 288.682L394.882 294.818M342.687 288.682L331.528 306.546M356.963 270.273L394.882 260.631M371.238 248.796L407.372 229.511M371.238 248.796L394.882 260.631M407.372 229.511L434.139 232.141M407.372 229.511L376.591 204.528M407.372 229.511L440.83 196.639M407.372 229.511V196.639M407.372 229.511L390.867 186.119M407.372 229.511L445.291 204.528M407.372 229.511L394.882 260.631M407.372 229.511L439.046 224.69M434.139 232.141H461.797M434.139 232.141L464.028 227.32M434.139 232.141L394.882 260.631M434.139 232.141L415.848 270.273M434.139 232.141L439.046 224.69M461.797 232.141L486.779 248.796M461.797 232.141H493.025M461.797 232.141L464.028 227.32M461.797 232.141L445.291 267.643M486.779 248.796L493.471 259.316M486.779 248.796L491.24 246.605M486.779 248.796L459.567 282.984M493.471 259.316L502.393 280.354M493.471 259.316L500.608 260.631M502.393 280.354L499.27 289.997M502.393 280.354L529.159 275.533M502.393 280.354L500.608 260.631M502.393 280.354L477.411 292.188M499.27 289.997L486.779 295.256M499.27 289.997L519.791 305.337M499.27 289.997H530.943M486.779 295.256L477.411 292.188M486.779 295.256L498.378 315.856M486.779 295.256L477.411 297.448M486.779 295.256L480.087 315.856M459.567 282.984L445.291 267.643M459.567 282.984L477.411 292.188M459.567 282.984L477.411 297.448M459.567 282.984L435.923 272.026M459.567 282.984L471.612 307.967M445.291 267.643L415.848 270.273M445.291 267.643L435.923 272.026M415.848 270.273L407.372 280.354M415.848 270.273L394.882 260.631M415.848 270.273L421.202 285.175M415.848 270.273L435.923 272.026M407.372 280.354L398.896 305.337M407.372 280.354L394.882 294.818M407.372 280.354L421.202 285.175M398.896 305.337L379.268 326.814M398.896 305.337L394.882 294.818M398.896 305.337L381.944 307.967M398.896 305.337L419.748 319.312M398.896 305.337L421.202 285.175M379.268 326.814L368.561 355.619M379.268 326.814L419.748 319.312M379.268 326.814L388.398 358.372M379.268 326.814L373.915 323.308M368.561 355.619L342.687 367.138M368.561 355.619L354.286 346.976M368.561 355.619L373.915 323.308M368.561 355.619L358 374.15M342.687 367.138L354.286 346.976M342.687 367.138L358 374.15M464.028 227.32L493.025 232.141M464.028 227.32L474.288 192.256M464.028 227.32L445.291 204.528M464.028 227.32V187.434M464.028 227.32L499.27 209.349M464.028 227.32L439.046 224.69M493.025 232.141L534.958 235.647M493.025 232.141L491.24 246.605M493.025 232.141L499.27 209.349M493.025 232.141L525.59 186.119M525.59 186.119L493.025 168.149M525.59 186.119L499.27 209.349M493.025 168.149L474.288 192.256M493.025 168.149L499.27 209.349M474.288 192.256L482.318 165.519M474.288 192.256L464.028 187.434M474.288 192.256L499.27 209.349M482.318 165.519L453.767 155M482.318 165.519L464.028 175.6M482.318 165.519L464.028 187.434M453.767 155L464.028 175.6M453.767 155L445.291 171.655M453.767 155L439.046 158.945M464.028 175.6L440.83 196.639M464.028 175.6L445.291 204.528M440.83 196.639L445.291 171.655M440.83 196.639H407.372M440.83 196.639L421.648 175.6M445.291 171.655L439.046 158.945M439.046 158.945L420.31 168.149M420.31 168.149L407.372 178.23M420.31 168.149L402.465 165.519M420.31 168.149L421.648 175.6M407.372 178.23L402.465 165.519M407.372 178.23V196.639M402.465 165.519L390.867 186.119M402.465 165.519L379.268 180.421M376.591 204.528L368.561 189.626L379.268 180.421M376.591 204.528L379.268 180.421M376.591 204.528L390.867 186.119M379.268 180.421L390.867 186.119M390.867 186.119L407.372 196.639M407.372 196.639L421.648 175.6M534.958 235.647L541.204 246.605M534.958 235.647L491.24 246.605M534.958 235.647L500.608 260.631M541.204 246.605L531.39 260.631M541.204 246.605L500.608 260.631M531.39 260.631H500.608M531.39 260.631L539.419 265.89M531.39 260.631L529.159 275.533M500.608 260.631L491.24 246.605M539.419 265.89L541.204 282.984L530.943 289.997M539.419 265.89L529.159 275.533M530.943 289.997L542.542 297.448M530.943 289.997L519.791 305.337M530.943 289.997L529.159 275.533M477.411 292.188V297.448M480.087 315.856L473.173 326.814M480.087 315.856H498.378M480.087 315.856L477.411 297.448M480.087 315.856L471.612 307.967M480.087 315.856L482.318 343.031M473.173 326.814L482.318 343.031M473.173 326.814L445.291 329.3M473.173 326.814L471.612 307.967M482.318 343.031H496.593M482.318 343.031L474.734 362.316M482.318 343.031L498.378 315.856M496.593 343.031H508.638M496.593 343.031L505.962 362.316M496.593 343.031L523.36 315.856M508.638 343.031H523.36L531.39 337.333L534.958 324.622M508.638 343.031L518.006 358.372M508.638 343.031L523.36 315.856M508.638 343.031L534.958 324.622M534.958 324.622L523.36 315.856M523.36 315.856L539.419 311.912L542.542 297.448M523.36 315.856H498.378M523.36 315.856L519.791 305.337M523.36 315.856L542.542 297.448M498.378 315.856L519.791 305.337M477.411 297.448L471.612 307.967M445.291 204.528L464.028 187.434M445.291 204.528L439.046 224.69M394.882 260.631V294.818M394.882 294.818L381.944 307.967M331.528 306.546L373.915 323.308M331.528 306.546L339.197 326.814M331.528 306.546L327.966 321.993M373.915 323.308L381.944 307.967M373.915 323.308L339.197 326.814M339.197 326.814L354.286 346.976M339.197 326.814L327.966 321.993M354.286 346.976H327.966M327.966 346.976L301.646 326.814M327.966 346.976V321.993M445.291 329.3L419.748 319.312M445.291 329.3L413.279 374.15M445.291 329.3L474.734 362.316M445.291 329.3L449.306 302.707M419.748 319.312L449.306 302.707M419.748 319.312L388.398 358.372M413.279 374.15L388.398 358.372M413.279 374.15L474.734 362.316M413.279 374.15L385.216 427.302M413.279 374.15L403.911 437.266M413.279 374.15L439.652 394.312M388.398 358.372L358 374.15M388.398 358.372L368.561 408.338M385.216 427.302L368.561 408.338M385.216 427.302L376.591 453.483M385.216 427.302L394.803 444.622M376.591 453.483L368.561 408.338M376.591 453.483L336.5 466.5M376.591 453.483L358 492.732M368.561 408.338L341.795 403.247M368.561 408.338L336.5 466.5M341.795 403.247L358 374.15M341.795 403.247L327.966 442.698M474.734 362.316H505.962M474.734 362.316L505.515 394.312M474.734 362.316L470.541 403.247M474.734 362.316L439.652 394.312M505.962 362.316L518.006 358.372M505.962 362.316L516.222 379.848M505.962 362.316L505.515 394.312M518.006 358.372L526.482 371.082M516.222 379.848L526.482 371.082M516.222 379.848L505.515 394.312M516.222 379.848L541.65 408.338M526.482 371.082L551.018 400.448M551.018 400.448L575.108 446.908M551.018 400.448L541.65 408.338M575.108 446.908L576 480.658M575.108 446.908L556.346 488.547M575.108 446.908L556.346 451.357M576 480.658L571.093 505.202M576 480.658L556.346 488.547M571.093 505.202L565.74 532.815M571.093 505.202L556.346 488.547M565.74 532.815L523.36 561.743M565.74 532.815L524.698 505.641M565.74 532.815L507.3 552.977M565.74 532.815L556.346 488.547M523.36 561.743L471.612 575M523.36 561.743L507.3 552.977M471.612 575L416.853 572.113M471.612 575L447.522 542.896M471.612 575L480.98 535.445M471.612 575L507.3 552.977M416.853 572.113L351.102 548.594M416.853 572.113L410.049 548.594M416.853 572.113L447.522 542.896M351.102 548.594L327.966 520.543M351.102 548.594L343 519.5M351.102 548.594H410.049M327.966 520.543L318.585 483.11M327.966 520.543L343 519.5M318.585 483.11L327.966 442.698M318.585 483.11L336.5 466.5M318.585 483.11L343 519.5M327.966 442.698L336.5 466.5M336.5 466.5L343 519.5M336.5 466.5L358 492.732M343 519.5L358 492.732M343 519.5L403.5 513.5M343 519.5L410.049 548.594M358 492.732L403.5 513.5M358 492.732L392.406 460.017M403.5 513.5L410.049 548.594M403.5 513.5L459.995 520.543M403.5 513.5L425.482 492.732M403.5 513.5L396.5 470.5M410.049 548.594L459.995 520.543M410.049 548.594L447.522 542.896M447.522 542.896L480.98 535.445M447.522 542.896L459.995 520.543M459.995 520.543L485.441 488.547M459.995 520.543L473.396 456.989M459.995 520.543L480.98 535.445M459.995 520.543L437.466 491.77M485.441 488.547L526.482 460.017M485.441 488.547L473.396 456.989M485.441 488.547L480.98 535.445M485.441 488.547L524.698 505.641M526.482 460.017L505.515 394.312M526.482 460.017L473.396 456.989M526.482 460.017L541.65 483.11M526.482 460.017L556.346 451.357M505.515 394.312L473.396 456.989M505.515 394.312L541.65 408.338M505.515 394.312L556.346 451.357M505.515 394.312L476.773 408.058M473.396 456.989L447.053 483.11M473.396 456.989L470.541 431.632M541.65 408.338L556.346 451.357M480.98 535.445L507.3 552.977M480.98 535.445L524.698 505.641M524.698 505.641L541.65 483.11M524.698 505.641L507.3 552.977M524.698 505.641L556.346 488.547M541.65 483.11L556.346 451.357M556.346 488.547V451.357M252.574 294.818L285.14 272.026M252.574 294.818L220.455 304.461M252.574 294.818L248.559 337.333M220.455 304.461L248.559 337.333M248.559 337.333L267.296 364.508M248.559 337.333L236.514 371.082M267.296 364.508L236.514 371.082M208.856 371.082H236.514M421.202 285.175L435.923 272.026M421.202 285.175L449.306 302.707M435.923 272.026L471.612 307.967M435.923 272.026L449.306 302.707M471.612 307.967L449.306 302.707M448.97 408.058L439.652 394.312M443.697 453.483L449.929 440.773M441.3 434.038L423.085 437.266L439.652 394.312" stroke="white"/>
<path fill-rule="evenodd" clip-rule="evenodd" d="M439.505 423.616C440.447 419.428 443.028 414.733 447.053 410.556C451.078 406.379 455.779 403.517 460.056 402.3C464.362 401.074 467.992 401.565 470.24 403.67C472.498 405.784 473.247 409.415 472.298 413.791C471.356 418.132 468.773 422.969 464.759 427.136C460.745 431.302 456.054 434.013 451.786 435.088C447.493 436.169 443.832 435.562 441.559 433.433C439.294 431.313 438.559 427.823 439.505 423.616ZM440.726 434.297C435.353 429.266 437.881 418.346 446.177 409.736C454.454 401.146 465.647 397.79 471.035 402.771C471.112 402.787 471.186 402.821 471.25 402.874L476.042 406.811C476.05 406.818 476.058 406.825 476.066 406.832C479.001 409.581 479.707 413.959 478.611 418.662C478.097 420.867 477.185 423.161 475.905 425.427C474.585 427.764 472.871 430.076 470.792 432.234C466.259 436.939 460.884 439.984 456.001 440.98C451.838 441.83 447.963 441.199 445.329 438.733L445.329 438.733L445.321 438.725L441.358 434.833C441.139 434.665 440.929 434.487 440.726 434.297ZM465.635 427.956C472.622 420.704 475.509 411.396 473.035 405.634L475.384 407.563C477.953 409.978 478.68 413.931 477.63 418.441C477.139 420.544 476.265 422.75 475.026 424.944C473.748 427.207 472.084 429.451 470.062 431.551C465.642 436.138 460.443 439.06 455.798 440.008C451.833 440.818 448.342 440.181 446.027 438.017L444.293 436.313C450.195 438.093 458.888 434.958 465.635 427.956ZM449.64 467.971C448.229 461.697 444.375 454.706 438.399 448.504C432.422 442.301 425.425 438.032 419.025 436.211C412.594 434.38 407.012 435.069 403.5 438.357C399.978 441.654 398.893 447.231 400.31 453.762C401.719 460.259 405.574 467.463 411.539 473.655C417.505 479.845 424.493 483.894 430.887 485.504C436.678 486.963 441.815 486.394 445.362 483.836L446.347 482.868C446.439 482.778 446.556 482.73 446.676 482.724C450.029 479.405 451.026 474.133 449.64 467.971ZM431.94 486.966C435.81 487.75 439.456 487.654 442.544 486.603L439.66 489.435C436.375 492.509 431.532 493.514 426.053 492.605L431.78 487.36C431.895 487.255 431.949 487.109 431.94 486.966ZM410.664 474.475C416.878 480.925 424.217 485.143 430.965 486.751L424.827 492.372C418.006 490.913 410.428 486.61 403.983 479.921C401.103 476.932 398.715 473.743 396.855 470.522L403.57 465.123C405.449 468.355 407.826 471.53 410.664 474.475ZM402.984 464.313C403.013 464.289 403.045 464.269 403.078 464.253C401.446 461.296 400.231 458.304 399.465 455.41L392.866 460.831C393.563 463.691 394.736 466.67 396.359 469.639L402.984 464.313ZM399.028 454.476C399.083 454.431 399.146 454.399 399.211 454.381C398.068 449.409 398.28 444.777 400.001 441.168L396.171 444.314C392.46 447.799 391.329 453.388 392.622 459.739L399.028 454.476ZM395.513 443.561L401.798 438.398C402.07 438.082 402.36 437.781 402.667 437.493C410.568 430.095 427.076 435.023 439.275 447.683C451.474 460.344 455.191 476.4 447.29 483.799C446.663 484.386 445.982 484.9 445.253 485.344L440.367 490.143L440.359 490.152L440.358 490.152C436.561 493.708 430.953 494.638 424.877 493.397C417.753 491.943 409.892 487.495 403.253 480.605C400.209 477.445 397.7 474.062 395.768 470.642C393.896 467.327 392.564 463.974 391.814 460.757C390.213 453.885 391.256 447.546 395.488 443.583C395.496 443.575 395.505 443.568 395.513 443.561Z" fill="white"/>
<path d="M404 38.7387L409.443 52.2426L409.531 52.46L409.737 52.5715L421.633 59L409.737 65.4285L409.531 65.54L409.443 65.7574L404 79.2613L398.557 65.7574L398.469 65.54L398.263 65.4285L386.367 59L398.263 52.5715L398.469 52.46L398.557 52.2426L404 38.7387Z" stroke="white" stroke-width="1.3"/>
<path d="M509.5 650.77L514.146 662.534L514.232 662.751L514.436 662.864L524.654 668.5L514.436 674.136L514.232 674.249L514.146 674.466L509.5 686.23L504.854 674.466L504.768 674.249L504.564 674.136L494.346 668.5L504.564 662.864L504.768 662.751L504.854 662.534L509.5 650.77Z" stroke="white" stroke-width="1.3"/>
<path d="M227.5 515.774L231.191 525.147L231.277 525.364L231.481 525.478L239.657 530L231.481 534.522L231.277 534.636L231.191 534.853L227.5 544.226L223.809 534.853L223.723 534.636L223.519 534.522L215.343 530L223.519 525.478L223.723 525.364L223.809 525.147L227.5 515.774Z" stroke="white" stroke-width="1.3"/>
<path d="M193.5 128.755L199.419 143.604L199.506 143.821L199.711 143.934L212.644 151L199.711 158.066L199.506 158.179L199.419 158.396L193.5 173.245L187.581 158.396L187.494 158.179L187.289 158.066L174.356 151L187.289 143.934L187.494 143.821L187.581 143.604L193.5 128.755Z" stroke="white" stroke-width="1.3"/>
<path d="M544.5 128.781L547.236 135.76L547.321 135.977L547.525 136.091L553.662 139.5L547.525 142.909L547.321 143.023L547.236 143.24L544.5 150.219L541.764 143.24L541.679 143.023L541.475 142.909L535.338 139.5L541.475 136.091L541.679 135.977L541.764 135.76L544.5 128.781Z" stroke="white" stroke-width="1.3"/>
</svg>
