<svg width="120" height="120" viewBox="0 0 120 120" fill="none" xmlns="http://www.w3.org/2000/svg">
<path d="M56.7575 18.5485C59.7654 15.9388 64.2348 15.9388 67.2428 18.5485L69.9305 20.8803C71.7865 22.4906 74.2796 23.1586 76.692 22.6921L80.1856 22.0165C84.0954 21.2604 87.966 23.4951 89.2661 27.2592L90.4278 30.6225C91.2301 32.945 93.0551 34.7701 95.3776 35.5723L98.7409 36.734C102.505 38.0341 104.74 41.9047 103.984 45.8145L103.308 49.3081C102.841 51.7206 103.509 54.2136 105.12 56.0696L107.452 58.7573C110.061 61.7653 110.061 66.2347 107.452 69.2426L105.12 71.9304C103.509 73.7864 102.841 76.2794 103.308 78.6919L103.984 82.1855C104.74 86.0953 102.505 89.9659 98.7409 91.266L95.3776 92.4277C93.0551 93.2299 91.2301 95.055 90.4278 97.3775L89.2661 100.741C87.966 104.505 84.0954 106.74 80.1856 105.983L76.692 105.308C74.2796 104.841 71.7865 105.509 69.9305 107.12L67.2428 109.451C64.2348 112.061 59.7654 112.061 56.7575 109.451L54.0698 107.12C52.2137 105.509 49.7207 104.841 47.3082 105.308L43.8147 105.983C39.9048 106.74 36.0342 104.505 34.7341 100.741L33.5724 97.3775C32.7702 95.055 30.9451 93.2299 28.6226 92.4277L25.2593 91.266C21.4953 89.9659 19.2606 86.0953 20.0167 82.1855L20.6922 78.6919C21.1588 76.2794 20.4908 73.7864 18.8805 71.9304L16.5486 69.2426C13.9389 66.2347 13.9389 61.7653 16.5486 58.7573L18.8805 56.0696C20.4907 54.2136 21.1588 51.7206 20.6922 49.3081L20.0167 45.8145C19.2606 41.9047 21.4953 38.0341 25.2593 36.734L28.6226 35.5723C30.9451 34.7701 32.7702 32.945 33.5724 30.6225L34.7341 27.2592C36.0342 23.4951 39.9048 21.2604 43.8146 22.0165L47.3082 22.6921C49.7207 23.1586 52.2137 22.4906 54.0698 20.8804L56.7575 18.5485Z" stroke="#222529" stroke-linecap="round" stroke-linejoin="round"/>
<path d="M27.0001 64C27.0001 44.67 42.6702 29 62.0001 29C81.3301 29 97.0001 44.67 97.0001 64C97.0001 83.33 81.3301 99 62.0001 99C42.6702 99 27.0001 83.33 27.0001 64Z" stroke="#222529" stroke-linecap="round" stroke-linejoin="round"/>
<path fill-rule="evenodd" clip-rule="evenodd" d="M81.7403 54.8147C82.9726 55.9957 82.9726 57.9654 81.7403 59.1464L61.923 78.1401C59.3355 80.62 55.1404 80.62 52.553 78.1401L42.2599 68.2748C41.0277 67.0938 41.0277 65.1241 42.2599 63.9431L47.2943 59.118C48.4547 58.0058 50.2855 58.0058 51.4459 59.118L57.238 64.6693L72.5543 49.9895C73.7147 48.8773 75.5455 48.8774 76.706 49.9895L81.7403 54.8147Z" stroke="#222529" stroke-linecap="round" stroke-linejoin="round"/>
<path d="M109 7.5L111.227 12.9544L116 15.5L111.227 18.0456L109 23.5L106.773 18.0456L102 15.5L106.773 12.9544L109 7.5Z" stroke="#222529" stroke-linecap="round" stroke-linejoin="round"/>
<path d="M8.5 96.5L10.091 100.25L13.5 102L10.091 103.75L8.5 107.5L6.90901 103.75L3.5 102L6.90901 100.25L8.5 96.5Z" stroke="#222529" stroke-linecap="round" stroke-linejoin="round"/>
</svg>
