<svg width="84" height="85" viewBox="0 0 84 85" fill="none" xmlns="http://www.w3.org/2000/svg">
<path d="M61.6791 20.5H73.9925C77.0837 20.5 79.5 22.7528 79.5 25.8572V66.3294C79.5 69.4339 76.9941 71.4487 73.903 71.4487H33.0448L20.3712 83.2054C19.6542 83.8701 18.4925 83.3593 18.4925 82.3793V71.4487H10.097C7.00587 71.4487 4.5 69.5766 4.5 66.4722V26C4.5 22.8955 7.09542 20.5 10.1866 20.5H22.5M16.2537 54.525H67.1866M16.2537 61.2704H55.4328" stroke="black" stroke-linecap="round" stroke-linejoin="round"/>
<path d="M64.4662 44.5H19.5338C16.3743 44.5 14.4636 41.0986 16.1 38.4705L38.5663 2.392C40.1371 -0.130665 43.8629 -0.130667 45.4337 2.392L67.9 38.4705C69.5364 41.0986 67.6257 44.5 64.4662 44.5Z" stroke="black"/>
<path d="M40.511 27.5026L38.9955 16.3019C38.76 14.5616 40.1345 13 41.9373 13C43.7402 13 45.1147 14.5616 44.8792 16.3019L43.3637 27.5026C43.2696 28.1984 42.6645 28.7278 41.9373 28.7278C41.2102 28.7278 40.6051 28.1984 40.511 27.5026ZM41.9373 33.6309C42.9181 33.6309 43.7007 34.4125 43.7007 35.3613C43.7007 36.3101 42.9181 37.0917 41.9373 37.0917C40.9565 37.0917 40.174 36.3101 40.174 35.3613C40.174 34.4125 40.9565 33.6309 41.9373 33.6309Z" stroke="black"/>
</svg>
