<svg width="180" height="26" viewBox="0 0 180 26" fill="none" xmlns="http://www.w3.org/2000/svg">
<path d="M71.9065 21.2304C70.0268 21.2304 68.3334 20.8414 66.8263 20.0634C65.3191 19.2685 64.1337 18.1691 63.2701 16.7653C62.4234 15.3446 62 13.7378 62 11.945C62 10.1522 62.4234 8.55391 63.2701 7.15011C64.1337 5.72939 65.3191 4.63002 66.8263 3.85201C68.3334 3.05708 70.0268 2.65962 71.9065 2.65962C73.6338 2.65962 75.1748 2.96406 76.5296 3.57294C77.8843 4.18182 79.002 5.06131 79.8826 6.21142L76.0978 9.58562C74.997 8.19873 73.7016 7.50529 72.2113 7.50529C70.9582 7.50529 69.9506 7.91121 69.1886 8.72304C68.4265 9.51797 68.0455 10.592 68.0455 11.945C68.0455 13.2981 68.4265 14.3805 69.1886 15.1924C69.9506 15.9873 70.9582 16.3848 72.2113 16.3848C73.7016 16.3848 74.997 15.6913 76.0978 14.3044L79.8826 17.6786C79.002 18.8288 77.8843 19.7082 76.5296 20.3171C75.1748 20.926 73.6338 21.2304 71.9065 21.2304Z" fill="#222529"/>
<path d="M91.0881 6.69345C92.7985 6.69345 94.1702 7.2093 95.2031 8.24101C96.2531 9.27273 96.778 10.8288 96.778 12.9091V20.8245H91.0373V13.8985C91.0373 12.3087 90.47 11.5137 89.3354 11.5137C88.6919 11.5137 88.167 11.7421 87.7605 12.1987C87.3711 12.6385 87.1763 13.3404 87.1763 14.3044V20.8245H81.4356V2H87.1763V8.06343C88.2432 7.15011 89.5471 6.69345 91.0881 6.69345Z" fill="#222529"/>
<path d="M114.76 6.94715V20.8245H109.299V19.6829C108.469 20.6131 107.199 21.0782 105.489 21.0782C104.269 21.0782 103.143 20.7907 102.11 20.2156C101.094 19.6237 100.281 18.778 99.6716 17.6786C99.0789 16.5793 98.7826 15.3108 98.7826 13.8732C98.7826 12.4355 99.0789 11.1755 99.6716 10.093C100.281 8.99366 101.094 8.15645 102.11 7.5814C103.143 6.98943 104.269 6.69345 105.489 6.69345C107.03 6.69345 108.206 7.09091 109.019 7.88584V6.94715H114.76ZM106.86 16.6131C107.521 16.6131 108.063 16.3763 108.486 15.9027C108.909 15.4123 109.121 14.7357 109.121 13.8732C109.121 13.0106 108.909 12.3425 108.486 11.8689C108.063 11.3953 107.521 11.1586 106.86 11.1586C106.2 11.1586 105.658 11.3953 105.234 11.8689C104.811 12.3425 104.599 13.0106 104.599 13.8732C104.599 14.7357 104.811 15.4123 105.234 15.9027C105.658 16.3763 106.2 16.6131 106.86 16.6131Z" fill="#222529"/>
<path d="M126.958 6.69345C128.668 6.69345 130.04 7.2093 131.073 8.24101C132.123 9.27273 132.648 10.8288 132.648 12.9091V20.8245H126.907V13.8985C126.907 12.3087 126.34 11.5137 125.205 11.5137C124.561 11.5137 124.036 11.7421 123.63 12.1987C123.241 12.6385 123.046 13.3404 123.046 14.3044V20.8245H117.305V6.94715H122.766V8.31713C123.308 7.7759 123.935 7.36998 124.646 7.09937C125.357 6.82875 126.128 6.69345 126.958 6.69345Z" fill="#222529"/>
<path d="M150.909 6.94715V18.0592C150.909 20.6977 150.172 22.6765 148.699 23.9958C147.243 25.3319 145.16 26 142.45 26C141.062 26 139.766 25.8478 138.564 25.5433C137.362 25.2558 136.337 24.833 135.49 24.2748L137.421 20.3679C137.963 20.7738 138.649 21.1036 139.478 21.3573C140.308 21.611 141.104 21.7378 141.866 21.7378C143.018 21.7378 143.856 21.4926 144.381 21.0021C144.906 20.5116 145.168 19.7928 145.168 18.8457V18.592C144.305 19.5729 143.026 20.0634 141.333 20.0634C140.147 20.0634 139.038 19.7928 138.005 19.2516C136.989 18.6934 136.176 17.907 135.566 16.8922C134.957 15.8605 134.652 14.685 134.652 13.3658C134.652 12.0465 134.957 10.8795 135.566 9.86469C136.176 8.84989 136.989 8.07188 138.005 7.53065C139.038 6.97252 140.147 6.69345 141.333 6.69345C143.229 6.69345 144.601 7.30233 145.448 8.52009V6.94715H150.909ZM142.857 15.5983C143.534 15.5983 144.093 15.3953 144.533 14.9894C144.99 14.5666 145.219 14.0254 145.219 13.3658C145.219 12.7061 144.99 12.1734 144.533 11.7674C144.093 11.3615 143.534 11.1586 142.857 11.1586C142.162 11.1586 141.587 11.3615 141.129 11.7674C140.689 12.1734 140.469 12.7061 140.469 13.3658C140.469 14.0254 140.698 14.5666 141.155 14.9894C141.612 15.3953 142.179 15.5983 142.857 15.5983Z" fill="#222529"/>
<path d="M161.296 16.8414C161.906 16.8414 162.414 16.7653 162.821 16.6131C163.244 16.4609 163.701 16.1987 164.192 15.8266L167.19 18.8457C165.801 20.334 163.777 21.0782 161.119 21.0782C159.442 21.0782 157.969 20.7738 156.699 20.1649C155.429 19.5391 154.447 18.6765 153.752 17.5772C153.058 16.4778 152.711 15.2431 152.711 13.8732C152.711 12.4863 153.058 11.2516 153.752 10.1691C154.447 9.06977 155.395 8.21565 156.597 7.60677C157.816 6.99789 159.18 6.69345 160.687 6.69345C162.059 6.69345 163.32 6.97252 164.472 7.53065C165.623 8.07188 166.538 8.88372 167.215 9.96617C167.892 11.0317 168.231 12.3087 168.231 13.797L158.731 15.6237C159.154 16.4355 160.009 16.8414 161.296 16.8414ZM160.712 10.6004C160.052 10.6004 159.51 10.7949 159.087 11.1839C158.68 11.5729 158.435 12.148 158.35 12.9091L162.795 12.0465C162.643 11.6068 162.38 11.26 162.008 11.0063C161.652 10.7357 161.22 10.6004 160.712 10.6004Z" fill="#222529"/>
<path d="M175.504 8.44398C176.52 7.27696 178.019 6.69345 180 6.69345V11.7674C179.543 11.6998 179.119 11.666 178.73 11.666C176.766 11.666 175.783 12.6638 175.783 14.6596V20.8245H170.043V6.94715H175.504V8.44398Z" fill="#222529"/>
<path d="M9.92199 21.2312C8.03935 21.2312 6.34329 20.8423 4.83379 20.0644C3.32429 19.2696 2.13704 18.1704 1.27205 16.7668C0.424017 15.3463 0 13.7398 0 11.9473C0 10.1548 0.424017 8.55675 1.27205 7.15317C2.13704 5.73268 3.32429 4.63349 4.83379 3.85561C6.34329 3.06081 8.03935 2.66341 9.92199 2.66341C11.652 2.66341 13.1954 2.9678 14.5522 3.57659C15.9091 4.18537 17.0285 5.06471 17.9105 6.21463L14.1198 9.58829C13.0173 8.20162 11.7198 7.50829 10.2273 7.50829C8.97219 7.50829 7.96303 7.91414 7.1998 8.72585C6.43657 9.52065 6.05496 10.5945 6.05496 11.9473C6.05496 13.3002 6.43657 14.3824 7.1998 15.1941C7.96303 15.9889 8.97219 16.3863 10.2273 16.3863C11.7198 16.3863 13.0173 15.693 14.1198 14.3063L17.9105 17.68C17.0285 18.8299 15.9091 19.7093 14.5522 20.318C13.1954 20.9268 11.652 21.2312 9.92199 21.2312Z" fill="#A840D8"/>
<path d="M26.4457 21.079C24.9023 21.079 23.5115 20.7746 22.2734 20.1658C21.0522 19.5402 20.0939 18.6862 19.3986 17.6039C18.7032 16.5047 18.3555 15.2618 18.3555 13.8751C18.3555 12.4885 18.7032 11.254 19.3986 10.1717C20.0939 9.07252 21.0522 8.21854 22.2734 7.60975C23.5115 7.00097 24.9023 6.69658 26.4457 6.69658C28.0061 6.69658 29.3969 7.00097 30.618 7.60975C31.8562 8.21854 32.8144 9.07252 33.4929 10.1717C34.1883 11.254 34.5359 12.4885 34.5359 13.8751C34.5359 15.2618 34.1883 16.5047 33.4929 17.6039C32.8144 18.6862 31.8562 19.5402 30.618 20.1658C29.3969 20.7746 28.0061 21.079 26.4457 21.079ZM26.4457 16.6146C27.1072 16.6146 27.6499 16.3779 28.0739 15.9044C28.498 15.414 28.71 14.7376 28.71 13.8751C28.71 13.0127 28.498 12.3447 28.0739 11.8712C27.6499 11.3977 27.1072 11.161 26.4457 11.161C25.7842 11.161 25.2415 11.3977 24.8175 11.8712C24.3935 12.3447 24.1815 13.0127 24.1815 13.8751C24.1815 14.7376 24.3935 15.414 24.8175 15.9044C25.2415 16.3779 25.7842 16.6146 26.4457 16.6146Z" fill="#A840D8"/>
<path d="M36.3355 6.95024H42.0852V20.8254H36.3355V6.95024ZM39.2103 5.83415C38.1757 5.83415 37.3362 5.56358 36.6917 5.02244C36.0641 4.46439 35.7504 3.7626 35.7504 2.91707C35.7504 2.07154 36.0641 1.37821 36.6917 0.837073C37.3362 0.279024 38.1757 0 39.2103 0C40.2619 0 41.1014 0.262114 41.729 0.786342C42.3565 1.31057 42.6703 1.98699 42.6703 2.81561C42.6703 3.69496 42.3565 4.42211 41.729 4.99707C41.1014 5.55512 40.2619 5.83415 39.2103 5.83415Z" fill="#A840D8"/>
<path d="M54.3012 6.69658C56.0142 6.69658 57.3881 7.21236 58.4227 8.2439C59.4742 9.27544 60 10.8312 60 12.9112V20.8254H54.2503V13.9005C54.2503 12.3109 53.6822 11.5161 52.5458 11.5161C51.9013 11.5161 51.3755 11.7444 50.9684 12.201C50.5784 12.6406 50.3833 13.3424 50.3833 14.3063V20.8254H44.6336V6.95024H50.1035V8.32C50.6462 7.77886 51.2737 7.37301 51.9861 7.10244C52.6984 6.83187 53.4701 6.69658 54.3012 6.69658Z" fill="#A840D8"/>
</svg>
