<?xml version="1.0" encoding="utf-8"?><svg viewBox="0 0 90 59" xmlns="http://www.w3.org/2000/svg" xmlns:xlink="http://www.w3.org/1999/xlink"><style>:root>svg{display:none}:root>svg:target{display:block}</style><svg fill="none" viewBox="0 0 25 24" id="add" xmlns="http://www.w3.org/2000/svg"><path fill-rule="evenodd" clip-rule="evenodd" d="M12.5 22c5.523 0 10-4.477 10-10s-4.477-10-10-10-10 4.477-10 10 4.477 10 10 10zm0-15a1 1 0 011 1v3h3a1 1 0 110 2h-3v3a1 1 0 11-2 0v-3h-3a1 1 0 110-2h3V8a1 1 0 011-1z" fill="#A840D8"/></svg><svg fill="none" viewBox="0 0 25 24" id="add_card" xmlns="http://www.w3.org/2000/svg"><path fill-rule="evenodd" clip-rule="evenodd" d="M3.5 21h18a3 3 0 003-3v-8H.5v8a3 3 0 003 3zM.5 7h24V6a3 3 0 00-3-3h-18a3 3 0 00-3 3v1zm2.955 9.5a.5.5 0 01.5-.5H10.5a.5.5 0 110 1H3.955a.5.5 0 01-.5-.5z" fill="#A840D8"/></svg><svg fill="none" viewBox="0 0 24 24" id="addfile" xmlns="http://www.w3.org/2000/svg"><path d="M12.643 7.636l-4.75 8.228a2 2 0 00.732 2.732v0a2 2 0 002.732-.732l6-10.393a3.5 3.5 0 00-1.281-4.78v0a3.5 3.5 0 00-4.781 1.28l-6.5 11.259a5 5 0 001.83 6.83v0a5 5 0 006.83-1.83l4.25-7.362" stroke="#000" stroke-linecap="round"/></svg><svg fill="none" viewBox="0 0 36 14" id="arrpag" xmlns="http://www.w3.org/2000/svg"><path d="M1 7h34m0 0l-6-6m6 6l-6 6" stroke="#222529" stroke-linecap="round" stroke-linejoin="round"/></svg><svg fill="none" viewBox="0 0 24 24" id="burger" xmlns="http://www.w3.org/2000/svg"><path d="M3 5h18m0 7H7m14 7H3" stroke="#222529" stroke-width="2"/></svg><svg fill="none" viewBox="0 0 16 16" id="calendar" xmlns="http://www.w3.org/2000/svg"><path fill-rule="evenodd" clip-rule="evenodd" d="M4.53.501a.5.5 0 00-1 0v1.265H2.5a2.5 2.5 0 00-2.5 2.5v9.233a2.5 2.5 0 002.5 2.5h10.997a2.5 2.5 0 002.5-2.5V4.266a2.5 2.5 0 00-2.5-2.5H12.47V.5a.5.5 0 00-1 0v1.265H4.53V.5zM2.5 2.766h1.03v.823a.5.5 0 101 0v-.823h6.94v.823a.5.5 0 101 0v-.823h1.028a1.5 1.5 0 011.5 1.5v1.028H1.001V4.266a1.5 1.5 0 011.5-1.5zM1 6.294h13.997V13.5a1.5 1.5 0 01-1.5 1.5H2.501a1.5 1.5 0 01-1.5-1.5V6.294zm2.706 4.235v-1.53h1.529v1.53H3.707zm-1-1.83a.7.7 0 01.7-.7h2.129a.7.7 0 01.7.7v2.13a.7.7 0 01-.7.7H3.407a.7.7 0 01-.7-.7v-2.13z" fill="#A840D8"/></svg><svg fill="none" viewBox="0 0 24 24" id="card" xmlns="http://www.w3.org/2000/svg"><path fill-rule="evenodd" clip-rule="evenodd" d="M3 20h18a2 2 0 002-2v-7.5H1V18a2 2 0 002 2zM1 7.5h22V6a2 2 0 00-2-2H3a2 2 0 00-2 2v1.5zM21 21H3a3 3 0 01-3-3V6a3 3 0 013-3h18a3 3 0 013 3v12a3 3 0 01-3 3zM4 15.5a.5.5 0 01.5-.5h6a.5.5 0 010 1h-6a.5.5 0 01-.5-.5z" fill="#222529"/></svg><svg fill="none" viewBox="0 0 20 20" id="change" xmlns="http://www.w3.org/2000/svg"><path fill-rule="evenodd" clip-rule="evenodd" d="M15.04 14a.5.5 0 11-1 0V3.84l-2.024 2.168a.5.5 0 01-.73-.683l2.888-3.095a.5.5 0 01.731 0l2.889 3.095a.5.5 0 11-.731.683L15.04 3.84V14zM5.96 6a.5.5 0 10-1 0v10.16l-2.023-2.168a.5.5 0 10-.731.683l2.889 3.095a.5.5 0 00.73 0l2.89-3.095a.5.5 0 00-.731-.683L5.96 16.16V6z" fill="#A840D8"/></svg><svg fill="none" viewBox="0 0 26 25" id="chat" xmlns="http://www.w3.org/2000/svg"><path opacity=".5" fill-rule="evenodd" clip-rule="evenodd" d="M14.003 3.782H5.25a1.5 1.5 0 00-1.5 1.5v9.405a1.5 1.5 0 001.5 1.5h12.299a1.5 1.5 0 01.957.345l3.576 2.963v-8.579a6.965 6.965 0 003-1.229v13a1.5 1.5 0 01-2.457 1.155l-5.617-4.655H5.25a4.5 4.5 0 01-4.5-4.5V5.282a4.5 4.5 0 014.5-4.5h9.532a6.964 6.964 0 00-.779 3z" fill="#fff"/><circle cx="21" cy="4" r="4" fill="#fff"/></svg><svg fill="none" viewBox="0 0 12 12" id="check" xmlns="http://www.w3.org/2000/svg"><path d="M1 5.6L5.118 10 11 2" stroke="#fff" stroke-width="2" stroke-linejoin="round"/></svg><svg fill="none" viewBox="0 0 19 14" id="check_step" xmlns="http://www.w3.org/2000/svg"><path d="M3 7.91L7.179 12 16 3" stroke="#222529" stroke-opacity=".5" stroke-width="4" stroke-linecap="square" stroke-linejoin="round"/></svg><svg fill="none" viewBox="0 0 19 14" id="check_view" xmlns="http://www.w3.org/2000/svg"><path d="M3 7.91L7.179 12 16 3" stroke="#222529" stroke-width="4" stroke-linecap="square" stroke-linejoin="round"/></svg><svg fill="#222529" viewBox="0 0 24 24" id="close" xmlns="http://www.w3.org/2000/svg"><path fill-rule="evenodd" clip-rule="evenodd" d="M12.004 13.418l-5.58 5.586L5.01 17.59l5.58-5.585L5 6.414 6.414 5l5.59 5.589 5.583-5.59L19 6.416l-5.583 5.588 5.58 5.58-1.414 1.414-5.58-5.579z"/></svg><svg fill="none" viewBox="0 0 24 24" id="close_1" xmlns="http://www.w3.org/2000/svg"><path fill-rule="evenodd" clip-rule="evenodd" d="M5.646 5.646a.5.5 0 01.708 0L12 11.293l5.646-5.647a.5.5 0 01.708.708L12.707 12l5.647 5.646a.5.5 0 01-.708.708L12 12.707l-5.646 5.647a.5.5 0 01-.708-.708L11.293 12 5.646 6.354a.5.5 0 010-.708z" fill="#222529" fill-opacity=".7"/></svg><svg viewBox="0 0 24 24" id="complete" xmlns="http://www.w3.org/2000/svg"><path fill-rule="evenodd" clip-rule="evenodd" d="M12 21a9 9 0 100-18 9 9 0 000 18zm4.754-10.341a1 1 0 00-1.506-1.317l-3.688 4.214-1.87-1.78a1 1 0 10-1.379 1.448l2.625 2.5a1 1 0 001.443-.066l4.375-5z"/></svg><svg fill="none" viewBox="0 0 38 38" id="copy" xmlns="http://www.w3.org/2000/svg"><path d="M24 13v-2.5a2 2 0 00-2-2H11.5a2 2 0 00-2 2V24a2 2 0 002 2H14" stroke="#222529" stroke-linecap="round"/><path d="M14 28V14a1 1 0 011-1h12a1 1 0 011 1v14a1 1 0 01-1 1H15a1 1 0 01-1-1z" fill="#222529" stroke="#222529" stroke-width="2" stroke-linecap="round"/></svg><svg fill="none" viewBox="0 0 72 54" id="crypto" xmlns="http://www.w3.org/2000/svg"><path fill-rule="evenodd" clip-rule="evenodd" d="M9.724 0a2.5 2.5 0 00-2.5 2.5v7.088c0 .562.186 1.082.5 1.5H3.813a2.5 2.5 0 00-2.5 2.5v7.087a2.5 2.5 0 002.5 2.5h3.254a2.49 2.49 0 00-.5 1.5v7.088c0 .563.186 1.082.5 1.5H2.5a2.5 2.5 0 00-2.5 2.5v7.74a2.5 2.5 0 002.5 2.5h18.03a.5.5 0 100-1h-6.068v-5.37a.5.5 0 10-1 0v5.37H7.24v-5.37a.5.5 0 00-1 0v5.37H2.5a1.5 1.5 0 01-1.5-1.5v-7.74a1.5 1.5 0 011.5-1.5h14.418a.5.5 0 100-1h-3.112v-4.718a.5.5 0 10-1 0v4.718h-3.75a1.5 1.5 0 01-1.49-1.5v-7.088a1.5 1.5 0 011.5-1.5h12.135a.5.5 0 100-1h-4.769v-4.718a.5.5 0 10-1 0v4.718H9.208v-4.718a.5.5 0 10-1 0v4.718H3.813a1.5 1.5 0 01-1.5-1.5v-7.088a1.5 1.5 0 011.5-1.5H42.5a2.5 2.5 0 002.5-2.5V2.5A2.5 2.5 0 0042.5 0H9.724zm28.873 11.088H42.5a1.5 1.5 0 001.5-1.5V2.5A1.5 1.5 0 0042.5 1H9.724a1.5 1.5 0 00-1.5 1.5v7.088a1.5 1.5 0 001.485 1.5h3.425V5.065a.5.5 0 011 0v6.022h6.224V5.066a.5.5 0 011 0v6.022h6.224V5.066a.5.5 0 011 0v6.022h10.015z" fill="#000"/><path fill-rule="evenodd" clip-rule="evenodd" d="M57 33.5C57 43.165 49.165 51 39.5 51S22 43.165 22 33.5 29.835 16 39.5 16 57 23.835 57 33.5zm1 0C58 43.717 49.717 52 39.5 52 29.282 52 21 43.717 21 33.5 21 23.282 29.282 15 39.5 15 49.717 15 58 23.282 58 33.5zM39.5 47.3c7.622 0 13.8-6.179 13.8-13.8 0-7.622-6.178-13.8-13.8-13.8-7.621 0-13.8 6.178-13.8 13.8 0 7.621 6.179 13.8 13.8 13.8zm0 1c8.174 0 14.8-6.627 14.8-14.8 0-8.174-6.626-14.8-14.8-14.8s-14.8 6.626-14.8 14.8c0 8.173 6.626 14.8 14.8 14.8zm-3.33-23.317a.5.5 0 01.5.5v1.726h3.995v-1.726a.5.5 0 011 0v1.765a3.258 3.258 0 012.729 3.215c0 .999-.448 1.904-1.156 2.514a3.512 3.512 0 01-1.194 6.813h-.379v1.726a.5.5 0 01-1 0V39.79H36.67v1.726a.5.5 0 11-1 0V39.79h-1.72a.5.5 0 110-1h1.72V28.209h-1.72a.5.5 0 010-1h1.72v-1.726a.5.5 0 01.5-.5zm.5 3.226v4.559h4.445c1.253 0 2.279-1.04 2.279-2.305 0-1.237-1.004-2.254-2.229-2.254H36.67zm0 5.559v5.022h5.375a2.509 2.509 0 002.505-2.511 2.509 2.509 0 00-2.506-2.511H36.67z" fill="#222529"/><path d="M65 5.322l1.764 4.321.069.167.16.085L70.937 12l-3.946 2.104-.16.085-.067.167L65 18.677l-1.764-4.32-.069-.168-.16-.085L59.063 12l3.946-2.105.16-.085.068-.167L65 5.323z" stroke="#222529"/></svg><svg fill="none" viewBox="0 0 24 24" id="download" xmlns="http://www.w3.org/2000/svg"><path fill-rule="evenodd" clip-rule="evenodd" d="M11 2c-3.084.007-4.738.075-6 .804A6 6 0 002.804 5C2 6.392 2 8.262 2 12c0 3.739 0 5.608.804 7A6 6 0 005 21.196C6.392 22 8.262 22 12 22c3.739 0 5.608 0 7-.804A6 6 0 0021.196 19C22 17.608 22 15.74 22 12c0-3.738 0-5.608-.804-7A6 6 0 0019 2.804c-1.262-.729-2.916-.797-6-.803v11.585l2.293-2.293a1 1 0 111.414 1.414l-4 4a1 1 0 01-1.414 0l-4-4a1 1 0 111.414-1.414L11 13.586V2z" fill="#A840D8"/></svg><svg fill="none" viewBox="0 0 12 12" id="drop" xmlns="http://www.w3.org/2000/svg"><path d="M.857 3.429L6 8.57l5.143-5.142" stroke="#222529" stroke-linecap="round" stroke-linejoin="round"/></svg><svg fill="none" viewBox="0 0 14 14" id="drop-select" xmlns="http://www.w3.org/2000/svg"><path d="M1 4l6 6 6-6" stroke="#fff" stroke-linecap="round" stroke-linejoin="round"/></svg><svg fill="none" viewBox="0 0 24 24" id="exchange" xmlns="http://www.w3.org/2000/svg"><path fill-rule="evenodd" clip-rule="evenodd" d="M5.772 5a.5.5 0 01.5-.5h3.183a.5.5 0 01.5.5v3.182a.5.5 0 01-1 0V6.256a6.504 6.504 0 001.3 12.008.5.5 0 11-.269.963A7.504 7.504 0 018.256 5.5H6.272a.5.5 0 01-.5-.5zm7.653.126a.5.5 0 01.617-.346 7.504 7.504 0 011.702 13.722h1.986a.5.5 0 010 1h-3.183a.5.5 0 01-.5-.5V15.82a.5.5 0 011 0v1.925A6.504 6.504 0 0013.77 5.743a.5.5 0 01-.345-.617z" fill="#A840D8"/></svg><svg fill="none" viewBox="0 0 63 55" id="fast" xmlns="http://www.w3.org/2000/svg"><path fill-rule="evenodd" clip-rule="evenodd" d="M34.7 3.781c0-1.011.82-1.831 1.83-1.831h7.039a1.831 1.831 0 010 3.662H36.53a1.831 1.831 0 01-1.83-1.831zM36.53.95a2.83 2.83 0 100 5.662h3.02V10h.95C28.073 10 18 20.074 18 32.5S28.073 55 40.5 55C52.926 55 63 44.926 63 32.5c0-7.453-3.624-14.06-9.206-18.154l1.361-1.944 2.558 1.791a1.5 1.5 0 002.09-.368l1.21-1.728a1.5 1.5 0 00-.37-2.089l-5.935-4.156a1.5 1.5 0 00-2.089.368l-1.21 1.728a1.5 1.5 0 00.369 2.09l2.558 1.79-1.361 1.944A22.395 22.395 0 0040.5 10h.05V6.612h3.019a2.831 2.831 0 000-5.662H36.53zm17.605 5.721a.5.5 0 00-.697.123l-1.21 1.728a.5.5 0 00.123.696l2.968 2.078 2.968 2.078a.5.5 0 00.696-.123l1.21-1.727a.5.5 0 00-.123-.697l-5.935-4.156zM40.5 54C52.374 54 62 44.374 62 32.5S52.374 11 40.5 11 19 20.626 19 32.5 28.626 54 40.5 54z" fill="#222529"/><path fill-rule="evenodd" clip-rule="evenodd" d="M57.593 33a17.305 17.305 0 000-1c-.26-9.047-7.546-16.333-16.593-16.593a17.31 17.31 0 00-1 0c-9.047.26-16.333 7.546-16.593 16.593a17.31 17.31 0 000 1c.26 9.047 7.546 16.333 16.593 16.593a17.31 17.31 0 001 0c9.047-.26 16.333-7.546 16.593-16.593zM41 48.592a16.043 16.043 0 0010.62-4.45l-2.43-2.43.708-.707 2.424 2.424A16.04 16.04 0 0056.592 33h-3.878a.5.5 0 110-1h3.878a16.036 16.036 0 00-4.068-10.206l-2.626 2.627-.708-.708 2.646-2.645A16.047 16.047 0 0041 16.408v3.878a.5.5 0 11-1 0v-3.878a16.047 16.047 0 00-10.84 4.664l2.64 2.641-.706.707-2.623-2.622A16.037 16.037 0 0024.407 32h3.879a.5.5 0 110 1h-3.879a16.047 16.047 0 004.66 10.837l2.833-2.832.707.707-2.813 2.813A16.036 16.036 0 0040 48.592v-3.878a.5.5 0 011 0v3.878zM41 32.5a.5.5 0 01-.5.5h-3.257a.5.5 0 110-1H40v-5.2a.5.5 0 011 0v5.7z" fill="#222529"/><path d="M7 8.323l1.764 4.32.069.168.159.085L12.937 15l-3.945 2.104-.16.085-.068.168L7 21.677l-1.765-4.32-.068-.168-.16-.085L1.063 15l3.946-2.104.159-.085.068-.168L7 8.323z" stroke="#222529"/></svg><svg fill="none" viewBox="0 0 68 54" id="garanty" xmlns="http://www.w3.org/2000/svg"><path fill-rule="evenodd" clip-rule="evenodd" d="M0 3.5A3.5 3.5 0 013.503 0l61 .046A3.5 3.5 0 0168 3.546V45.55a3.5 3.5 0 01-3.5 3.5h-11a.5.5 0 010-1h11a2.5 2.5 0 002.5-2.5V7.998H1v37.55a2.5 2.5 0 002.5 2.5h11a.5.5 0 110 1h-11a3.5 3.5 0 01-3.5-3.5V3.5zm1 3.498h66V3.546a2.5 2.5 0 00-2.498-2.5L3.502 1A2.5 2.5 0 001 3.5v3.498zM34 15.5a9.308 9.308 0 00-9.308 9.308v4.677h2.462v-4.698a6.846 6.846 0 0113.692 0v4.698h2.462v-4.677A9.308 9.308 0 0034 15.5zm10.308 13.985v-4.677C44.308 19.115 39.693 14.5 34 14.5s-10.308 4.615-10.308 10.308v4.677H22.5a3.5 3.5 0 00-3.5 3.5V50.5a3.5 3.5 0 003.5 3.5h23a3.5 3.5 0 003.5-3.5V32.985a3.5 3.5 0 00-3.5-3.5h-1.192zm-4.462 0v-4.698a5.846 5.846 0 00-11.692 0v4.698h11.692zm-17.346 1a2.5 2.5 0 00-2.5 2.5V50.5a2.5 2.5 0 002.5 2.5h23a2.5 2.5 0 002.5-2.5V32.985a2.5 2.5 0 00-2.5-2.5h-23zM8 4.998a1 1 0 100-2 1 1 0 000 2zm7-1a1 1 0 11-2 0 1 1 0 012 0zm5 1a1 1 0 100-2 1 1 0 000 2zM37 40a3 3 0 11-6 0 3 3 0 016 0zm1 0a3.998 3.998 0 01-2.001 3.465L36 43.5v3a2 2 0 11-4 0v-3l.001-.035A4 4 0 1138 40zm-4 4c.345 0 .68-.044 1-.126V46.5a1 1 0 11-2 0v-2.626c.32.082.655.126 1 .126zm1-4a1 1 0 11-2 0 1 1 0 012 0z" fill="#222529"/></svg><svg fill="none" viewBox="0 0 90 52" id="hand" xmlns="http://www.w3.org/2000/svg"><path fill-rule="evenodd" clip-rule="evenodd" d="M0 25.487v1l42.5-.06V41.61l-31.792 8.104c.46.242.931.466 1.411.672l30.44-7.759A2.501 2.501 0 0045 44.582h2a2.5 2.5 0 002.5-2.5v-1.324l6.303 2.702c.062.026.13.04.197.04h13a.5.5 0 00.255-.07l14.735-8.75a2.41 2.41 0 00-2.18-4.286l-1.91.818c.833-2.065 1.784-5.65 1.093-9.795-.424-2.544-2.17-5.133-4.108-7.301a35.654 35.654 0 00-5.387-4.876c-.01-.654-.067-1.254-.225-1.716a1.67 1.67 0 00-.446-.718 1.224 1.224 0 00-.102-.082l.108-.193c.45-.798.987-1.755 1.375-2.645.257-.587.466-1.184.538-1.719.07-.523.023-1.106-.392-1.522-.266-.266-.597-.312-.875-.274-.257.035-.506.145-.703.243a9.936 9.936 0 00-.294.155l-.001.001c-.093.05-.175.095-.251.133a1.679 1.679 0 01-.184.081 1.686 1.686 0 01-.07-.093l-.033-.046A6.272 6.272 0 0069.838.7a1.835 1.835 0 00-.485-.466A1.562 1.562 0 0068.5 0c-.679 0-1.169.345-1.5.61-.072.057-.13.106-.183.15-.084.07-.15.124-.223.175a.705.705 0 01-.094.058.698.698 0 01-.094-.058 3.347 3.347 0 01-.223-.175A12.156 12.156 0 0066 .61C65.669.345 65.179 0 64.5 0s-1.169.345-1.5.61c-.072.057-.13.106-.183.15-.084.07-.15.124-.223.175a.623.623 0 01-.103.063 1.662 1.662 0 01-.237-.094L62.16.861a4.906 4.906 0 00-.502-.21c-.223-.075-.524-.14-.837-.055-.338.092-.595.334-.768.68a1.338 1.338 0 00-.116.647 3.6 3.6 0 00.103.679c.112.472.308 1.021.535 1.575.355.867.805 1.784 1.186 2.507a1.32 1.32 0 00-.082.046 13.77 13.77 0 00-1.457-.694C59.52 5.753 58.7 5.5 58 5.5c-.76 0-1.591-.001-2.293-.118-.74-.124-1.129-.344-1.26-.606a.5.5 0 10-.894.448c.369.738 1.23 1.018 1.99 1.144.79.132 1.7.132 2.436.132H58c.5 0 1.173.192 1.848.464.452.182.878.39 1.215.57A1.672 1.672 0 0061 8v.199a6.374 6.374 0 00-1.493-.085c-.89.056-1.909.312-2.807.986-.816.612-1.342 1.09-1.67 1.45-.163.18-.285.338-.368.474a1.353 1.353 0 00-.107.208.734.734 0 00-.055.268.5.5 0 00.993.083 2.323 2.323 0 01.276-.359c.273-.298.746-.736 1.531-1.324.702-.526 1.517-.74 2.268-.788A5.308 5.308 0 0161 9.218v.027c-1.784 1.316-4.284 3.666-6.279 6.666C52.655 19.015 51.1 22.863 51.498 27H49.5v-1a2.5 2.5 0 00-2.5-2.5h-2.074a2.427 2.427 0 00-2.375 1.927L0 25.487zM62.5 2c.287 0 .52-.14.671-.248.103-.072.222-.17.327-.257l.127-.105c.294-.235.554-.39.875-.39.321 0 .581.155.875.39.038.03.081.067.127.105.105.086.224.185.327.257.151.107.384.248.671.248.287 0 .52-.14.671-.248.103-.072.222-.17.327-.257l.127-.105c.294-.235.554-.39.875-.39.16 0 .254.038.319.079a.856.856 0 01.218.221l.079.108v.001l.047.066c.044.061.1.136.164.207A.9.9 0 0070 2c.257 0 .51-.118.677-.201.091-.046.186-.097.273-.145l.01-.005c.092-.05.178-.097.264-.14a1.4 1.4 0 01.39-.146c.019-.003.031-.003.039-.003.082.088.155.276.101.675-.053.398-.219.894-.462 1.453-.366.838-.866 1.726-1.31 2.517l-.284.506c-.508.034-1.145.14-1.741.24l-.04.006C67.15 6.885 66.449 7 66 7c-.342 0-.95-.112-1.646-.242l-.03-.005c-.514-.096-1.076-.2-1.52-.238A29.895 29.895 0 0161.5 3.798a10.208 10.208 0 01-.487-1.428 2.6 2.6 0 01-.076-.484.54.54 0 01.01-.162v-.002.002c.074-.149.129-.161.137-.163.032-.009.106-.012.258.038.118.04.233.093.368.156l.13.06c.153.069.408.185.66.185zm16.044 29.794a.413.413 0 01.009-.018c.803-1.607 2.23-5.531 1.454-10.194-.376-2.256-1.963-4.667-3.867-6.799a34.692 34.692 0 00-5.196-4.708c-.89.378-2.73.925-4.944.925-2.136 0-3.695-.51-4.468-.905-1.696 1.262-4.077 3.51-5.978 6.37-2.001 3.007-3.441 6.642-3.057 10.485a.494.494 0 01.003.05h.43a2.5 2.5 0 012.08 1.113l.269.404a3.5 3.5 0 002.787 1.556l8.095.29A4.5 4.5 0 0170.5 34.86v.382l8.044-3.448zM66 10c-2.008 0-3.4-.484-4-.789V8c0-.186.054-.282.102-.336a.467.467 0 01.191-.124c.081-.03.16-.04.207-.04.359 0 .977.112 1.67.242l.066.012C64.865 7.87 65.556 8 66 8c.542 0 1.323-.13 2.043-.25l.04-.007C68.85 7.615 69.551 7.5 70 7.5c.085 0 .127.022.16.053.046.04.108.125.167.297.103.3.156.744.17 1.329-.788.324-2.465.821-4.497.821zM43.5 25.926c0-.787.639-1.426 1.426-1.426H47a1.5 1.5 0 011.5 1.5v16.082a1.5 1.5 0 01-1.5 1.5h-2a1.5 1.5 0 01-1.5-1.5V25.926zm6 13.744V28h3.43c.501 0 .97.25 1.248.668l.269.404a4.5 4.5 0 003.584 2l8.094.29A3.5 3.5 0 0169.5 34.86v.64H63a.5.5 0 100 1h7a.5.5 0 00.197-.04l12.007-5.146a1.41 1.41 0 011.275 2.508L68.863 42.5h-12.76L49.5 39.67zM67 14a.5.5 0 00-1 0v1.043a4.738 4.738 0 00-.2.025c-.693.104-1.388.369-1.918.851C63.34 16.413 63 17.11 63 18c0 .922.504 1.564 1.141 2.034.535.393 1.212.7 1.86.98v5.01c-.653-.01-1.426-.155-2.325-.492a.5.5 0 00-.352.936c.99.371 1.885.545 2.676.555V29a.5.5 0 101 0v-2.058a4.02 4.02 0 001.245-.444A3.412 3.412 0 0070 23.5c0-.952-.49-1.626-1.131-2.123-.538-.416-1.218-.735-1.869-1.02v-4.314c.201.024.396.064.579.117.503.146.846.378 1.005.617a.5.5 0 10.832-.554c-.34-.511-.935-.842-1.557-1.023a4.665 4.665 0 00-.859-.163V14zm-1.05 2.057l.05-.007v3.872c-.486-.22-.919-.439-1.266-.694C64.246 18.869 64 18.492 64 18c0-.61.223-1.038.555-1.341.345-.314.838-.518 1.394-.602zM67 25.919v-4.466c.482.222.912.449 1.257.715.483.374.743.784.743 1.332 0 .833-.414 1.66-1.245 2.127a2.95 2.95 0 01-.755.292z" fill="#fff"/></svg><svg fill="none" viewBox="0 0 24 24" id="info" xmlns="http://www.w3.org/2000/svg"><path fill-rule="evenodd" clip-rule="evenodd" d="M22 12c0 5.523-4.477 10-10 10S2 17.523 2 12 6.477 2 12 2s10 4.477 10 10zm1 0c0 6.075-4.925 11-11 11S1 18.075 1 12 5.925 1 12 1s11 4.925 11 11zM11.917 9c-.443 0-.804-.144-1.082-.431a1.476 1.476 0 01-.418-1.069c0-.425.14-.782.418-1.069.278-.287.64-.431 1.082-.431.444 0 .805.138 1.083.414.278.276.417.62.417 1.034 0 .449-.139.822-.417 1.121-.278.287-.64.431-1.083.431zM11 11h2v7h-2v-7z" fill="#A840D8"/></svg><svg fill="none" viewBox="0 0 48 54" id="info_order" xmlns="http://www.w3.org/2000/svg"><path fill-rule="evenodd" clip-rule="evenodd" d="M18 4h12a1 1 0 011 1v3a1 1 0 01-1 1H18a1 1 0 01-1-1V5a1 1 0 011-1zm-2 2V5a2 2 0 012-2h12a2 2 0 012 2v1h6.5A3.5 3.5 0 0142 9.5v38a3.5 3.5 0 01-3.5 3.5h-29A3.5 3.5 0 016 47.5v-38A3.5 3.5 0 019.5 6H16zm16 1v1a2 2 0 01-2 2H18a2 2 0 01-2-2V7h-5.5v38a1.5 1.5 0 001.5 1.5h24a1.5 1.5 0 001.5-1.5V7H32zM7 9.5A2.5 2.5 0 019.5 7v38a2.5 2.5 0 002.5 2.5h24a2.5 2.5 0 002.5-2.5V7A2.5 2.5 0 0141 9.5v38a2.5 2.5 0 01-2.5 2.5h-29A2.5 2.5 0 017 47.5v-38zM32.5 33a.5.5 0 01-.5.5H16a.5.5 0 010-1h16a.5.5 0 01.5.5zm-.5 4.5a.5.5 0 000-1H16a.5.5 0 000 1h16zm.5 3.5a.5.5 0 01-.5.5H16a.5.5 0 010-1h16a.5.5 0 01.5.5zm-5.312-18.61a.5.5 0 11.624-.78l2.5 2a.5.5 0 010 .78l-2.5 2a.5.5 0 11-.624-.78l1.387-1.11H20a.5.5 0 010-1h8.575l-1.387-1.11z" fill="#222529"/><path opacity=".6" d="M18 18h10m-10 0l2.5 2M18 18l2.5-2" stroke="#222529" stroke-linecap="round" stroke-linejoin="round"/></svg><svg fill="none" viewBox="0 0 24 24" id="inform" xmlns="http://www.w3.org/2000/svg"><path fill-rule="evenodd" clip-rule="evenodd" d="M12 20a8 8 0 100-16 8 8 0 000 16zm0-9.778c-.328 0-.596-.106-.802-.32a1.093 1.093 0 01-.31-.79c0-.316.104-.58.31-.793.206-.213.474-.319.802-.319.328 0 .596.102.802.307.206.204.31.46.31.766 0 .332-.104.609-.31.83-.206.213-.474.32-.802.32zm-.89.89h1.778V16H11.11v-4.889z" fill="#fff"/></svg><svg fill="none" viewBox="0 0 69 59" id="my_acc" xmlns="http://www.w3.org/2000/svg"><path fill-rule="evenodd" clip-rule="evenodd" d="M13.003 1.004l43 .055a2 2 0 011.997 2V7H11V3.004a2 2 0 012.003-2zM10 8V3.004a3 3 0 013.004-3l43 .055a3 3 0 012.996 3V56a3 3 0 01-3 3H13a3 3 0 01-3-3V8zm48 0v48a2 2 0 01-2 2H13a2 2 0 01-2-2V8h47zM44 27.5a9.475 9.475 0 01-3.081 7.003 7.304 7.304 0 00-6.484-3.938 7.303 7.303 0 00-6.441 3.857A9.5 9.5 0 1144 27.5zm1 0c0 3.188-1.42 6.044-3.664 7.97A10.451 10.451 0 0134.5 38c-2.276 0-4.382-.724-6.102-1.954A10.475 10.475 0 0124 27.5C24 21.701 28.701 17 34.5 17S45 21.701 45 27.5zm-10.565 4.065a6.305 6.305 0 015.691 3.59A9.457 9.457 0 0134.5 37a9.458 9.458 0 01-5.722-1.916 6.305 6.305 0 015.657-3.519zm0-3.043a2.652 2.652 0 100-5.304 2.652 2.652 0 000 5.304zm0 1a3.652 3.652 0 100-7.305 3.652 3.652 0 000 7.305zM21.5 44.5a.5.5 0 01.5-.5h24a.5.5 0 010 1H22a.5.5 0 01-.5-.5zm2 5a.5.5 0 01.5-.5h20a.5.5 0 010 1H24a.5.5 0 01-.5-.5zM19 3.998a1 1 0 11-2 0 1 1 0 012 0zm5 1a1 1 0 100-2 1 1 0 000 2zm7-1a1 1 0 11-2 0 1 1 0 012 0zM0 10.527a3.5 3.5 0 013.531-3.5l3.474.031a.5.5 0 11-.01 1l-3.473-.031A2.5 2.5 0 001 10.527v41.878a2.5 2.5 0 002.5 2.5H7a.5.5 0 010 1H3.5a3.5 3.5 0 01-3.5-3.5V10.527zm65.469-3.5a3.5 3.5 0 013.531 3.5V52.5a3.5 3.5 0 01-3.5 3.5H62a.5.5 0 010-1h3.5a2.5 2.5 0 002.5-2.5V10.527a2.5 2.5 0 00-2.522-2.5l-3.473.03a.5.5 0 01-.01-1l3.474-.03z" fill="#222529"/></svg><svg fill="none" viewBox="0 0 64 54" id="online" xmlns="http://www.w3.org/2000/svg"><path fill-rule="evenodd" clip-rule="evenodd" d="M3 5.5A2.5 2.5 0 015.5 3h34.278a2.5 2.5 0 012.5 2.5v23.396a2.5 2.5 0 01-2.5 2.5H23.731a3.5 3.5 0 00-2.585 1.14l-8.017 8.783a.5.5 0 01-.87-.337v-8.086a1.5 1.5 0 00-1.5-1.5H5.5a2.5 2.5 0 01-2.5-2.5V5.5zM5.5 2A3.5 3.5 0 002 5.5v23.396a3.5 3.5 0 003.5 3.5h5.26a.5.5 0 01.5.5v8.086c0 1.37 1.684 2.023 2.607 1.012l8.017-8.783a2.5 2.5 0 011.847-.815h16.047a3.5 3.5 0 003.5-3.5V5.5a3.5 3.5 0 00-3.5-3.5H5.5zm41.908 11.198a.5.5 0 100 1h10.426a2.5 2.5 0 012.5 2.5v22.93a2.5 2.5 0 01-2.5 2.5h-5.26a1.5 1.5 0 00-1.5 1.5v6.837a.5.5 0 01-.855.353l-7.595-7.655a3.5 3.5 0 00-2.485-1.035H28.65a2.5 2.5 0 01-2.5-2.5v-3.066a.5.5 0 10-1 0v3.066a3.5 3.5 0 003.5 3.5h11.49a2.5 2.5 0 011.775.74l7.596 7.654c.943.95 2.564.283 2.564-1.056v-6.838a.5.5 0 01.5-.5h5.26a3.5 3.5 0 003.5-3.5v-22.93a3.5 3.5 0 00-3.5-3.5H47.408zm-18.982 5.6a.5.5 0 000 1h7.408a.5.5 0 100-1h-7.408zm-17.593 5.599a.5.5 0 100 1h25a.5.5 0 000-1h-25zm36.575 2.8a.5.5 0 100 1h7.407a.5.5 0 100-1h-7.407zm0 4.199a.5.5 0 000 1h7.407a.5.5 0 100-1h-7.407zM23.194 9.585a.5.5 0 01.057.704L18.396 16h3.974v-1.834a.5.5 0 111 0v1.833h1.815a.5.5 0 110 1H23.37v2.3a.5.5 0 01-1 0v-2.3h-5.055a.5.5 0 01-.381-.824l5.555-6.532a.5.5 0 01.705-.057zm-10.172.88a2.152 2.152 0 00-2.152 2.153v.147a.5.5 0 11-1 0v-.147a3.152 3.152 0 013.152-3.152c2.764 0 4.19 3.303 2.294 5.314l-3.787 4.018h5.323a.5.5 0 110 1H10.37a.5.5 0 01-.364-.843l4.582-4.861c1.294-1.373.321-3.628-1.566-3.628z" fill="#000"/></svg><svg fill="none" viewBox="0 0 38 38" id="qr" xmlns="http://www.w3.org/2000/svg"><path fill-rule="evenodd" clip-rule="evenodd" d="M10.5 16.5v-6h6v6h-6zm-1 0v-6a1 1 0 011-1h6a1 1 0 011 1v6a1 1 0 01-1 1h-6a1 1 0 01-1-1zm3-3.5a.5.5 0 01.5-.5h1a.5.5 0 01.5.5v1a.5.5 0 01-.5.5h-1a.5.5 0 01-.5-.5v-1zm8 8a.5.5 0 01.5-.5h1a.5.5 0 01.5.5v1a.5.5 0 01-.5.5h-1a.5.5 0 01-.5-.5v-1zM13 23.5a.5.5 0 00-.5.5v1a.5.5 0 00.5.5h1a.5.5 0 00.5-.5v-1a.5.5 0 00-.5-.5h-1zM23.5 13a.5.5 0 01.5-.5h1a.5.5 0 01.5.5v1a.5.5 0 01-.5.5h-1a.5.5 0 01-.5-.5v-1zm.5 10.5a.5.5 0 00-.5.5v1a.5.5 0 00.5.5h1a.5.5 0 00.5-.5v-1a.5.5 0 00-.5-.5h-1zM20.5 27a.5.5 0 01.5-.5h1a.5.5 0 01.5.5v1a.5.5 0 01-.5.5h-1a.5.5 0 01-.5-.5v-1zm6.5-6.5a.5.5 0 00-.5.5v1a.5.5 0 00.5.5h1a.5.5 0 00.5-.5v-1a.5.5 0 00-.5-.5h-1zm-.5 6.5a.5.5 0 01.5-.5h1a.5.5 0 01.5.5v1a.5.5 0 01-.5.5h-1a.5.5 0 01-.5-.5v-1zm-16-5.5v6h6v-6h-6zm-1 0v6a1 1 0 001 1h6a1 1 0 001-1v-6a1 1 0 00-1-1h-6a1 1 0 00-1 1zm12-5v-6h6v6h-6zm-1 0v-6a1 1 0 011-1h6a1 1 0 011 1v6a1 1 0 01-1 1h-6a1 1 0 01-1-1z" fill="#222529"/><path fill-rule="evenodd" clip-rule="evenodd" d="M9.5 10.5a1 1 0 011-1h6a1 1 0 011 1v6a1 1 0 01-1 1h-6a1 1 0 01-1-1v-6zm1 18a1 1 0 01-1-1v-6a1 1 0 011-1h6a1 1 0 011 1v6a1 1 0 01-1 1h-6zm10-18a1 1 0 011-1h6a1 1 0 011 1v6a1 1 0 01-1 1h-6a1 1 0 01-1-1v-6zm-10 6h6v-6h-6v6zm2.5-4a.5.5 0 00-.5.5v1a.5.5 0 00.5.5h1a.5.5 0 00.5-.5v-1a.5.5 0 00-.5-.5h-1zm8 8a.5.5 0 00-.5.5v1a.5.5 0 00.5.5h1a.5.5 0 00.5-.5v-1a.5.5 0 00-.5-.5h-1zM12.5 24a.5.5 0 01.5-.5h1a.5.5 0 01.5.5v1a.5.5 0 01-.5.5h-1a.5.5 0 01-.5-.5v-1zM24 12.5a.5.5 0 00-.5.5v1a.5.5 0 00.5.5h1a.5.5 0 00.5-.5v-1a.5.5 0 00-.5-.5h-1zM23.5 24a.5.5 0 01.5-.5h1a.5.5 0 01.5.5v1a.5.5 0 01-.5.5h-1a.5.5 0 01-.5-.5v-1zM21 26.5a.5.5 0 00-.5.5v1a.5.5 0 00.5.5h1a.5.5 0 00.5-.5v-1a.5.5 0 00-.5-.5h-1zm5.5-5.5a.5.5 0 01.5-.5h1a.5.5 0 01.5.5v1a.5.5 0 01-.5.5h-1a.5.5 0 01-.5-.5v-1zm.5 5.5a.5.5 0 00-.5.5v1a.5.5 0 00.5.5h1a.5.5 0 00.5-.5v-1a.5.5 0 00-.5-.5h-1zm-16.5-5h6v6h-6v-6zm11-5h6v-6h-6v6z" fill="#222529"/></svg><svg fill="none" viewBox="0 0 54 54" id="referal" xmlns="http://www.w3.org/2000/svg"><path fill-rule="evenodd" clip-rule="evenodd" d="M26.565 4h.87c2.385 0 4.073.002 5.353.174 1.25.168 1.96.482 2.475.998.516.515.83 1.224.998 2.475.172 1.28.174 2.968.174 5.353v.87c0 2.385-.002 4.073-.174 5.353-.169 1.25-.482 1.96-.998 2.475a2.725 2.725 0 01-.533.416 7.828 7.828 0 00-15.46 0 2.726 2.726 0 01-.533-.416c-.516-.515-.83-1.225-.998-2.475-.172-1.28-.174-2.968-.174-5.353V13c0-2.385.002-4.074.174-5.353.168-1.25.482-1.96.998-2.475.515-.516 1.224-.83 2.475-.998C22.492 4.002 24.18 4 26.565 4zm9.405 18.405c-.33.33-.707.587-1.145.785a5.522 5.522 0 01-1 .333c-1.449.344-3.444.346-6.325.347v5.814l5.232 3.987a10.41 10.41 0 017.833-3.54C46.328 30.13 51 34.801 51 40.564 51 46.328 46.328 51 40.565 51c-2.238 0-4.312-.705-6.011-1.905a10.41 10.41 0 01-4.423-8.53c0-2.283.733-4.395 1.977-6.113L27 30.56l-5.108 3.892a10.388 10.388 0 011.978 6.113 10.41 10.41 0 01-3.591 7.877A10.387 10.387 0 0113.435 51C7.672 51 3 46.328 3 40.565 3 34.802 7.672 30.13 13.435 30.13c3.12 0 5.92 1.37 7.833 3.54l5.232-3.986V23.87c-2.88 0-4.876-.003-6.324-.347a6.78 6.78 0 01-.355-.095 5.255 5.255 0 01-.503-.176c-.5-.206-.922-.48-1.288-.847-1.465-1.464-1.465-3.821-1.465-8.535V13c0-4.714 0-7.071 1.465-8.536C19.494 3 21.85 3 26.565 3h.87c4.714 0 7.07 0 8.535 1.464C37.435 5.93 37.435 8.286 37.435 13v.87c0 4.714 0 7.07-1.465 8.535zm-8.47.465v-.044h-1v.044c-2.35 0-4.02-.004-5.288-.175-.374-.05-.7-.113-.986-.191a6.827 6.827 0 0113.549 0 7.669 7.669 0 01-.987.191c-1.268.17-2.937.174-5.288.175zm-7.657 24.62a9.435 9.435 0 10-12.815 0 7.303 7.303 0 016.407-3.794 7.303 7.303 0 016.408 3.794zm-.787.653a6.304 6.304 0 00-5.621-3.447 6.304 6.304 0 00-5.621 3.447A9.393 9.393 0 0013.434 50a9.39 9.39 0 005.622-1.857zM40.566 50c2.105 0 4.05-.69 5.62-1.857a6.304 6.304 0 00-5.62-3.447 6.304 6.304 0 00-5.622 3.447A9.392 9.392 0 0040.565 50zm0-6.304a7.303 7.303 0 016.407 3.794 9.435 9.435 0 10-12.815 0 7.303 7.303 0 016.407-3.794zM27 13.478a2.652 2.652 0 100-5.304 2.652 2.652 0 000 5.304zm0 1a3.652 3.652 0 100-7.304 3.652 3.652 0 000 7.304zM16.087 39a2.652 2.652 0 11-5.304 0 2.652 2.652 0 015.304 0zm1 0a3.652 3.652 0 11-7.304 0 3.652 3.652 0 017.304 0zm23.478 2.652a2.652 2.652 0 100-5.304 2.652 2.652 0 000 5.304zm0 1a3.652 3.652 0 100-7.304 3.652 3.652 0 000 7.304z" fill="#000"/></svg><svg fill="none" viewBox="0 0 24 20" id="rus" xmlns="http://www.w3.org/2000/svg"><rect x="1" y="1" width="22" height="18" rx="2" fill="#0052B4"/><path d="M1 3a2 2 0 012-2h18a2 2 0 012 2v4H1V3z" fill="#fff"/><path d="M1 17a2 2 0 002 2h18a2 2 0 002-2v-5H1v5z" fill="#D80027"/><rect x=".5" y=".5" width="23" height="19" rx="2.5" stroke="#3C384C"/></svg><svg fill="none" viewBox="0 0 24 24" id="search" xmlns="http://www.w3.org/2000/svg"><path d="M5.228 18.573l3.698-3.96a6.555 6.555 0 01-1.472-4.153c0-3.562 2.814-6.46 6.273-6.46C17.186 4 20 6.898 20 10.46s-2.814 6.46-6.273 6.46a6.083 6.083 0 01-3.594-1.169l-3.726 3.99a.8.8 0 01-1.156.024.861.861 0 01-.023-1.192zm8.5-12.888c-2.558 0-4.637 2.142-4.637 4.775 0 2.633 2.08 4.775 4.636 4.775 2.557 0 4.637-2.142 4.637-4.775 0-2.633-2.08-4.775-4.637-4.775z" fill="#222529"/></svg><svg fill="none" viewBox="0 0 24 24" id="sendmessage" xmlns="http://www.w3.org/2000/svg"><path d="M3.265 20.916l18.22-8.136a.847.847 0 000-1.56L3.264 3.084c-.832-.372-1.63.571-1.088 1.286l5.383 7.123a.836.836 0 010 1.014L2.177 19.63c-.54.715.256 1.658 1.088 1.286z" fill="#A840D8"/></svg><svg fill="none" viewBox="0 0 30 31" id="star" xmlns="http://www.w3.org/2000/svg"><path d="M14.692 2.577l3.116 9.336.068.204.195.091 8.13 3.79-8.13 3.789-.195.09-.068.205-3.116 9.336-3.115-9.336-.068-.204-.195-.091-8.13-3.79 8.13-3.789.195-.09.068-.205 3.115-9.336z" stroke="#222529"/></svg><svg fill="none" viewBox="0 0 23 26" id="star_over" xmlns="http://www.w3.org/2000/svg"><path opacity=".5" d="M11.5 1.703l3.059 7.408.09.218.207.11L21.607 13l-6.751 3.562-.208.11-.09.216-3.058 7.409-3.058-7.409-.09-.217-.208-.11L1.393 13l6.751-3.562.208-.11.09-.217L11.5 1.703z" stroke="#fff" stroke-width="1.3"/></svg><svg fill="none" viewBox="0 0 20 20" id="support" xmlns="http://www.w3.org/2000/svg"><path fill-rule="evenodd" clip-rule="evenodd" d="M14.5 8a2.5 2.5 0 100-5 2.5 2.5 0 000 5zM4 5.5a.5.5 0 01.5-.5H10a.5.5 0 000-1H4.5A1.5 1.5 0 003 5.5v7A1.5 1.5 0 004.5 14h7.89c.43 0 .84.185 1.124.507l1.611 1.824A.5.5 0 0016 16v-6a.5.5 0 00-1 0v4.679l-.736-.834A2.5 2.5 0 0012.39 13H4.5a.5.5 0 01-.5-.5v-7z" fill="#222529"/></svg><svg fill="none" viewBox="0 0 24 24" id="time" xmlns="http://www.w3.org/2000/svg"><path fill-rule="evenodd" clip-rule="evenodd" d="M3.921 3.158a.5.5 0 01.5-.5H19.58a.5.5 0 110 1h-2.026V6.21a4.5 4.5 0 01-1.8 3.6L12.833 12l2.92 2.19a4.5 4.5 0 011.8 3.6v2.552h2.026a.5.5 0 110 1H4.42a.5.5 0 110-1h2.026V17.79a4.5 4.5 0 011.8-3.6l2.92-2.19-2.92-2.19a4.5 4.5 0 01-1.8-3.6V3.659H4.421a.5.5 0 01-.5-.5zm3.526.5V6.21a3.5 3.5 0 001.4 2.8L12 11.375l3.153-2.364a3.5 3.5 0 001.4-2.8V3.658H7.447zm6.58 14.658a.5.5 0 001 0v-1.263a.5.5 0 00-.2-.4L12.3 14.758a.5.5 0 00-.6.8l2.326 1.745v1.013z" fill="#222529"/><path d="M9.474 5.684v1.263L12 8.842" stroke="#222529" stroke-linecap="round" stroke-linejoin="round"/></svg><svg fill="none" viewBox="0 0 24 20" id="uk" xmlns="http://www.w3.org/2000/svg"><rect x=".5" y=".5" width="23" height="19" rx="2.5" stroke="#2D293E" stroke-opacity=".07"/><rect x="1" y="1" width="22" height="18" rx="2" fill="#fff"/><path fill-rule="evenodd" clip-rule="evenodd" d="M1.666 1.51A1.995 1.995 0 001 3v4.392h6.548L1.666 1.51zm.001 16.98A1.995 1.995 0 011 17v-4.39h6.548l-5.881 5.88zm7.727.51H4.848l4.546-4.547V19zm9.762 0h-4.547v-4.547L19.156 19zM23 12.61V17a2 2 0 01-.665 1.49l-5.88-5.88H23zm-.664-11.1A2 2 0 0123 3v4.39h-6.545l5.88-5.88zM14.609 1h4.548l-4.548 4.547V1zM4.846 1h4.548v4.547L4.846 1z" fill="#0052B4"/><path fill-rule="evenodd" clip-rule="evenodd" d="M13.305 8.696H23v-.001 2.61h-9.694V19h-2.61v-7.695H1v-2.61h9.695V1h2.61v7.696z" fill="#D80027"/><path fill-rule="evenodd" clip-rule="evenodd" d="M21 19l-6.39-6.391h1.23l6.137 6.136A1.991 1.991 0 0121 19zM4.229 19l5.162-5.162v-1.23L2.998 19h1.23zM2.022 1.255L8.16 7.392h1.23V7.39L2.998 1a1.99 1.99 0 00-.976.255zM21.001 1L14.61 7.39V6.16L19.77 1H21z" fill="#D80027"/></svg><svg fill="none" viewBox="0 0 24 24" id="warning" xmlns="http://www.w3.org/2000/svg"><path fill-rule="evenodd" clip-rule="evenodd" d="M21.59 16.502C22.752 18.5 21.307 21 18.993 21H5.007c-2.314 0-3.759-2.501-2.597-4.498L9.403 4.491c1.157-1.988 4.037-1.988 5.194 0l6.993 12.011zm-10.604-2.844a1.032 1.032 0 002.056-.005l.337-4.162a1.38 1.38 0 10-2.75.007l.357 4.16zM12 18c.66 0 1.132-.498 1.132-1.11 0-.61-.473-1.094-1.132-1.094-.674 0-1.16.483-1.16 1.095 0 .611.486 1.109 1.16 1.109z" fill="#222529"/></svg></svg>